<svg xmlns="http://www.w3.org/2000/svg" id="Layer_1" data-name="Layer 1" viewBox="0 0 216 216"><defs><style>      .cls-1 {        fill: #fff;      }    </style></defs><polygon class="cls-1" points="184.48 32.32 190.07 42.53 200.28 48.11 190.07 53.7 184.48 63.91 178.9 53.7 168.69 48.11 178.9 42.53 184.48 32.32"></polygon><path class="cls-1" d="m192.37,125.11l-14.54,14.53c-1.03,1.03-2.26,1.58-3.52,1.74-3.3.46-6.75-1.83-6.96-5.65-1.26-21.56-12.68-42.71-31.4-56.42-12.52-9.16-27.76-14.86-43.31-15.32-1.3-.04-2.57-.04-3.87,0-5.56.16-11.06,1.79-15.02,5.88-5.24,5.42-6.84,13.37-4.07,20.39,3.48,8.79,13.89,15.15,23.26,14.54.89-.07,1.79-.16,2.68-.28,4.79-.73,9.43-2.31,14.37-2.45,9.57-.32,19.02,2.5,26.35,8.75,8.4,7.19,13.21,17.67,16.04,28.16,0,0,3.16,13.16-3.92,26.74-8.88,17.05-25.54,22.09-29.28,23.16-1.46.41-26.83,7.37-36.44-5.2-2.63-3.44-5.04-9.62-2.88-15.25,1.12-2.88,3.11-4.88,4.97-6.22,2.01-1.46,3.84-2.11,4.19-2.22,2.54-.89,5.11-1.01,7.71-.25,2.06.62,3.96,1.58,5.95,2.36,9.22,3.66,19.52,1.01,26.05-6.41,3.21-3.64,5.13-8.56,4.6-13.37-.43-3.84-2.33-7.4-4.87-10.32-11.44-13.18-31.7-9.34-45.73-2.98-8.93,4.05-17.22,10.14-22.43,18.57-.83,1.35-1.58,2.72-2.24,4.14-1.79,3.85-6.91,4.72-9.91,1.7l-28.32-28.32c-5.49-5.47-5.49-14.35,0-19.82L96.18,28.94c5.49-5.47,14.37-5.47,19.84,0l76.36,76.36c5.47,5.47,5.47,14.35,0,19.82Z"></path></svg>