<svg xmlns="http://www.w3.org/2000/svg" xmlns:xlink="http://www.w3.org/1999/xlink" id="Layer_1" x="0px" y="0px" viewBox="0 0 720 166.3" style="enable-background:new 0 0 720 166.3;" xml:space="preserve"><style type="text/css">	.st0{fill:#F06322;}	.st1{fill:#D9E7F4;}</style><polygon class="st0" points="168.8,7.5 174.4,17.7 184.6,23.3 174.4,28.9 168.8,39.1 163.2,28.9 153,23.3 163.2,17.7 "></polygon><path class="st1" d="M176.6,100.3l-14.5,14.5c-1,1-2.3,1.6-3.5,1.7c-3.3,0.5-6.8-1.8-7-5.7c-1.3-21.6-12.7-42.7-31.4-56.4 c-12.5-9.2-27.8-14.9-43.3-15.3c-1.3,0-2.6,0-3.9,0C67.5,39.3,62,40.9,58,45c-5.2,5.4-6.8,13.4-4.1,20.4 c3.5,8.8,13.9,15.2,23.3,14.5c0.9-0.1,1.8-0.2,2.7-0.3c4.8-0.7,9.4-2.3,14.4-2.4c9.6-0.3,19,2.5,26.3,8.8c8.4,7.2,13.2,17.7,16,28.2 c0,0,3.2,13.2-3.9,26.7c-8.9,17.1-25.5,22.1-29.3,23.2c-1.5,0.4-26.8,7.4-36.4-5.2c-2.6-3.4-5-9.6-2.9-15.2c1.1-2.9,3.1-4.9,5-6.2 c2-1.5,3.8-2.1,4.2-2.2c2.5-0.9,5.1-1,7.7-0.2c2.1,0.6,4,1.6,5.9,2.4c9.2,3.7,19.5,1,26.1-6.4c3.2-3.6,5.1-8.6,4.6-13.4 c-0.4-3.8-2.3-7.4-4.9-10.3C101.3,94,81,97.8,67,104.2c-8.9,4.1-17.2,10.1-22.4,18.6c-0.8,1.3-1.6,2.7-2.2,4.1 c-1.8,3.9-6.9,4.7-9.9,1.7L4.1,100.3c-5.5-5.5-5.5-14.3,0-19.8L80.4,4.1c5.5-5.5,14.4-5.5,19.8,0l76.4,76.4 C182.1,85.9,182.1,94.8,176.6,100.3z"></path><polygon class="st0" points="701.3,86.3 707.9,98.4 720,105 707.9,111.6 701.3,123.6 694.8,111.6 682.7,105 694.8,98.4 "></polygon><path class="st1" d="M219.8,112.6c-0.9-1.2-1.3-2.8-1.2-4.8c0.1-1.9,1.2-3.6,3.4-5c1.4-0.9,2.9-1.3,4.5-1.1c1.6,0.1,3.1,0.9,4.6,2.4 c2.6,2.6,5.3,4.6,8.1,6s6.4,2.1,10.6,2.1c1.3-0.1,2.8-0.3,4.4-0.6c1.6-0.3,3-1,4.2-2.1c1.2-1.1,1.8-2.8,1.8-5.1c0-1.9-0.7-3.5-2-4.6 s-3.1-2.1-5.2-2.9c-2.2-0.8-4.6-1.6-7.2-2.2c-2.7-0.8-5.6-1.7-8.4-2.7s-5.5-2.2-7.9-3.8c-2.4-1.6-4.3-3.6-5.8-6.2 c-1.5-2.6-2.2-5.8-2.2-9.7c0-4.4,1.2-8.2,3.7-11.3s5.7-5.5,9.6-7.2c3.9-1.7,8.1-2.5,12.4-2.5c2.7,0,5.6,0.3,8.6,1 c3,0.7,5.9,1.7,8.6,3.2c2.7,1.5,5,3.4,6.9,5.8c1,1.3,1.5,2.9,1.7,4.8c0.2,1.9-0.7,3.5-2.5,5c-1.3,1.1-2.9,1.5-4.6,1.4 c-1.8-0.1-3.2-0.7-4.4-1.8c-1.5-1.9-3.5-3.5-6-4.6c-2.5-1.2-5.4-1.7-8.7-1.7c-1.3,0-2.8,0.2-4.3,0.5c-1.6,0.3-2.9,1-4,2 c-1.1,1-1.7,2.6-1.7,4.8c0,2,0.7,3.7,2,4.8c1.3,1.2,3.1,2.2,5.4,2.9s4.7,1.5,7.2,2.2c2.6,0.7,5.3,1.6,8.1,2.5c2.7,1,5.3,2.2,7.6,3.8 c2.3,1.6,4.1,3.7,5.6,6.2c1.4,2.5,2.1,5.7,2.1,9.6c0,4.5-1.3,8.4-4,11.5c-2.6,3.2-6,5.6-10,7.2c-4,1.6-8.1,2.4-12.2,2.4 c-5.2,0-10.4-0.9-15.6-2.7C227.6,120.4,223.3,117.2,219.8,112.6L219.8,112.6z"></path><path class="st1" d="M322.1,108.6c-1.1,0-2.2,0.2-3,0.6c-0.9,0.4-1.9,0.6-2.9,0.6c-1,0-1.9-0.2-2.7-0.5s-1.5-0.9-2-1.7 c-0.5-0.8-0.7-1.8-0.7-3.1V68.6h9.4c2.1,0,3.9-0.7,5.3-2.1c1.4-1.4,2.1-3.1,2.1-5.1s-0.7-3.9-2.1-5.3c-1.4-1.4-3.2-2.1-5.3-2.1h-9.4 v-8.5c0-2.3-0.7-4.2-2.2-5.8s-3.3-2.3-5.6-2.3s-4.2,0.8-5.8,2.3s-2.3,3.5-2.3,5.8V54h-6.1c-2.1,0-3.9,0.7-5.3,2.1 c-1.4,1.4-2.1,3.1-2.1,5.1s0.7,3.9,2.1,5.3c1.4,1.4,3.2,2.1,5.3,2.1h6.1v36.6c0,4.3,0.7,7.7,2,10.2c1.3,2.5,3,4.3,5,5.5 s4.1,1.9,6.4,2.3c2.2,0.3,4.3,0.5,6.2,0.5c3.1,0,6-0.8,8.7-2.4s4-3.6,4-6.1c0-2-0.5-3.6-1.5-4.8 C324.4,109.2,323.3,108.6,322.1,108.6L322.1,108.6z"></path><path class="st1" d="M402.7,60.8v56.4c0,8.1-1.5,14.6-4.6,19.4c-3,4.8-7.1,8.3-12.3,10.4c-5.1,2.1-10.9,3.2-17.2,3.2 c-2.8,0-5.8-0.2-9-0.7c-3.2-0.4-5.8-1.1-7.8-2c-2.7-1.1-4.5-2.6-5.5-4.3c-1-1.7-1.2-3.6-0.6-5.5c0.8-2.6,2.1-4.3,3.9-5.2 c1.8-0.9,3.6-1.1,5.6-0.3c1.4,0.4,3.3,1.1,5.6,2.1c2.3,0.9,5,1.4,8,1.4c4.1,0,7.5-0.6,10.2-1.6c2.7-1.1,4.7-3,6.1-5.6 s2.1-6.2,2.1-10.7v-1.4c-0.9,1.1-1.8,2.1-2.9,2.9c-2.3,1.9-4.9,3.3-8,4.3c-3.1,1-6.6,1.5-10.6,1.5c-4.7,0-8.8-1.1-12.3-3.2 s-6.2-5.2-8.1-9c-2-3.8-2.9-8.2-2.9-13.2V60.8c0-2.3,0.8-4.2,2.3-5.8c1.5-1.5,3.4-2.3,5.7-2.3s4.2,0.8,5.7,2.3 c1.5,1.5,2.3,3.5,2.3,5.8v34c0,5.8,1.3,9.8,3.8,12.1c2.5,2.3,6,3.5,10.5,3.5c3.1,0,5.7-0.6,7.8-1.8c2.1-1.2,3.8-2.9,4.9-5.3 c1.1-2.3,1.7-5.2,1.7-8.6v-34c0-2.3,0.8-4.2,2.3-5.8c1.5-1.5,3.4-2.3,5.7-2.3s4.2,0.8,5.7,2.3C402,56.6,402.8,58.5,402.7,60.8 L402.7,60.8z"></path><path class="st1" d="M437.2,115.5c0,2.3-0.8,4.2-2.3,5.8c-1.5,1.6-3.5,2.3-5.8,2.3s-4.1-0.8-5.6-2.3s-2.2-3.5-2.2-5.8v-82 c0-2.3,0.8-4.2,2.3-5.8c1.5-1.5,3.5-2.3,5.8-2.3s4.2,0.8,5.6,2.3c1.5,1.5,2.2,3.5,2.2,5.8L437.2,115.5L437.2,115.5z"></path><path class="st1" d="M507.8,52.7c2.3,0,4.2,0.8,5.7,2.3c1.5,1.5,2.3,3.5,2.3,5.8v33.7c0,9.4-2.6,16.8-7.8,22.3 c-5.2,5.5-12.7,8.2-22.5,8.2s-17.3-2.7-22.5-8.2s-7.8-12.9-7.8-22.3V60.8c0-2.3,0.8-4.2,2.2-5.8s3.4-2.3,5.7-2.3s4.2,0.8,5.7,2.3 c1.5,1.5,2.2,3.5,2.2,5.8v33.7c0,5.4,1.2,9.4,3.6,12c2.4,2.6,6,3.9,10.7,3.9s8.5-1.3,10.9-3.9c2.4-2.6,3.6-6.6,3.6-12V60.8 c0-2.3,0.8-4.2,2.2-5.8S505.4,52.7,507.8,52.7L507.8,52.7z"></path><path class="st1" d="M528.8,112.6c-0.9-1.2-1.3-2.8-1.2-4.8c0.1-1.9,1.2-3.6,3.5-5c1.4-0.9,2.9-1.3,4.5-1.1s3.1,0.9,4.6,2.4 c2.6,2.6,5.3,4.6,8.1,6s6.4,2.1,10.6,2.1c1.3-0.1,2.8-0.3,4.4-0.6s3-1,4.2-2.1c1.2-1.1,1.8-2.8,1.8-5.1c0-1.9-0.7-3.5-2-4.6 s-3.1-2.1-5.2-2.9c-2.2-0.8-4.6-1.6-7.2-2.2c-2.7-0.8-5.5-1.7-8.4-2.7c-2.9-1-5.5-2.2-7.9-3.8c-2.4-1.6-4.3-3.6-5.8-6.2 c-1.5-2.6-2.2-5.8-2.2-9.7c0-4.4,1.2-8.2,3.7-11.3c2.5-3.1,5.7-5.5,9.6-7.2s8.1-2.5,12.4-2.5c2.7,0,5.6,0.3,8.6,1s5.9,1.7,8.6,3.2 s5,3.4,6.9,5.8c1,1.3,1.5,2.9,1.7,4.8c0.2,1.9-0.7,3.5-2.5,5c-1.3,1.1-2.9,1.5-4.6,1.4c-1.8-0.1-3.2-0.7-4.4-1.8 c-1.5-1.9-3.5-3.5-6-4.6c-2.5-1.2-5.4-1.7-8.7-1.7c-1.3,0-2.8,0.2-4.3,0.5c-1.5,0.3-2.9,1-4,2c-1.2,1-1.7,2.6-1.7,4.8 c0,2,0.7,3.7,2,4.8c1.3,1.2,3.1,2.2,5.4,2.9s4.7,1.5,7.2,2.2c2.7,0.7,5.3,1.6,8.1,2.5c2.7,1,5.3,2.2,7.6,3.8 c2.3,1.6,4.2,3.7,5.6,6.2c1.4,2.5,2.1,5.7,2.1,9.6c0,4.5-1.3,8.4-4,11.5c-2.7,3.2-6,5.6-10,7.2c-4,1.6-8,2.4-12.2,2.4 c-5.2,0-10.4-0.9-15.7-2.7C536.6,120.4,532.3,117.2,528.8,112.6L528.8,112.6z"></path><path class="st1" d="M631.1,108.6c-1.2,0-2.2,0.2-3,0.6s-1.9,0.6-2.9,0.6c-1,0-1.9-0.2-2.7-0.5c-0.8-0.3-1.5-0.9-2-1.7 s-0.7-1.8-0.7-3.1V68.6h9.4c2.1,0,3.9-0.7,5.3-2.1c1.4-1.4,2.1-3.1,2.1-5.1s-0.7-3.9-2.1-5.3c-1.4-1.4-3.2-2.1-5.3-2.1h-9.4v-8.5 c0-2.3-0.7-4.2-2.2-5.8s-3.3-2.3-5.6-2.3s-4.2,0.8-5.8,2.3c-1.5,1.5-2.3,3.5-2.3,5.8V54h-6.1c-2.1,0-3.9,0.7-5.3,2.1 c-1.4,1.4-2.1,3.1-2.1,5.1s0.7,3.9,2.1,5.3c1.4,1.4,3.2,2.1,5.3,2.1h6.1v36.6c0,4.3,0.7,7.7,2,10.2c1.3,2.5,3,4.3,5,5.5 s4.1,1.9,6.4,2.3c2.3,0.3,4.3,0.5,6.2,0.5c3.1,0,6-0.8,8.7-2.4s4-3.6,4-6.1c0-2-0.5-3.6-1.5-4.8 C633.4,109.2,632.3,108.6,631.1,108.6L631.1,108.6z"></path><path class="st1" d="M659.1,123.6c-2.3,0-4.2-0.8-5.7-2.3s-2.2-3.5-2.2-5.8V60.8c0-2.3,0.8-4.2,2.2-5.8s3.4-2.3,5.7-2.3 s4.2,0.8,5.7,2.3c1.5,1.5,2.2,3.5,2.2,5.8v12.5l-0.9-8.9c1-2.1,2.2-4,3.8-5.6c1.5-1.6,3.3-3,5.2-4.1c1.9-1.1,4-1.9,6.2-2.5 c2.2-0.5,4.4-0.8,6.6-0.8c2.7,0,4.9,0.8,6.7,2.2c1.8,1.5,2.7,3.3,2.7,5.3c0,2.9-0.8,5-2.2,6.3c-1.5,1.3-3.1,1.9-4.9,1.9 s-3.2-0.3-4.6-0.9s-2.9-0.9-4.7-0.9c-1.6,0-3.2,0.4-4.8,1.1s-3.1,1.9-4.5,3.5c-1.4,1.6-2.5,3.6-3.3,5.9c-0.8,2.3-1.3,5.1-1.3,8.3 v31.4c0,2.3-0.8,4.2-2.2,5.8C663.3,122.8,661.4,123.6,659.1,123.6L659.1,123.6z"></path></svg>