<svg xmlns="http://www.w3.org/2000/svg" xmlns:xlink="http://www.w3.org/1999/xlink" id="Layer_1" data-name="Layer 1" viewBox="0 0 720 166.33"><defs><style>      .cls-1 {        fill: #f06322;      }      .cls-2 {        fill: url(#linear-gradient);      }      .cls-3 {        fill: #1b2f5a;      }    </style><linearGradient id="linear-gradient" x1="90.37" y1="0" x2="90.37" y2="166.33" gradientUnits="userSpaceOnUse"><stop offset="0" stop-color="#213051"></stop><stop offset="1" stop-color="#1b2f5a"></stop></linearGradient></defs><polygon class="cls-1" points="168.76 7.48 174.35 17.7 184.56 23.28 174.35 28.86 168.76 39.08 163.18 28.86 152.97 23.28 163.18 17.7 168.76 7.48"></polygon><path class="cls-2" d="m176.65,100.28l-14.54,14.53c-1.03,1.03-2.26,1.58-3.52,1.74-3.3.46-6.75-1.83-6.96-5.65-1.26-21.56-12.68-42.71-31.4-56.42-12.52-9.16-27.76-14.86-43.31-15.32-1.3-.04-2.57-.04-3.87,0-5.56.16-11.06,1.79-15.02,5.88-5.24,5.42-6.84,13.37-4.07,20.39,3.48,8.79,13.89,15.15,23.26,14.54.89-.07,1.79-.16,2.68-.28,4.79-.73,9.43-2.31,14.37-2.45,9.57-.32,19.02,2.5,26.35,8.75,8.4,7.19,13.21,17.67,16.04,28.16,0,0,3.16,13.16-3.92,26.74-8.88,17.05-25.54,22.09-29.28,23.16-1.46.41-26.83,7.37-36.44-5.2-2.63-3.44-5.04-9.62-2.88-15.25,1.12-2.88,3.11-4.88,4.97-6.22,2.01-1.46,3.84-2.11,4.19-2.22,2.54-.89,5.11-1.01,7.71-.25,2.06.62,3.96,1.58,5.95,2.36,9.22,3.66,19.52,1.01,26.05-6.41,3.21-3.64,5.13-8.56,4.6-13.37-.43-3.84-2.33-7.4-4.87-10.32-11.44-13.18-31.7-9.34-45.73-2.98-8.93,4.05-17.22,10.14-22.43,18.57-.83,1.35-1.58,2.72-2.24,4.14-1.79,3.85-6.91,4.72-9.91,1.7l-28.32-28.32c-5.49-5.47-5.49-14.35,0-19.82L80.45,4.1c5.49-5.47,14.37-5.47,19.84,0l76.36,76.36c5.47,5.47,5.47,14.35,0,19.82Z"></path><polygon class="cls-1" points="701.35 86.32 707.94 98.38 720 104.98 707.94 111.57 701.35 123.63 694.75 111.57 682.69 104.98 694.75 98.38 701.35 86.32"></polygon><path class="cls-3" d="m219.82,112.62c-.89-1.24-1.28-2.83-1.19-4.77.09-1.94,1.24-3.62,3.45-5.04,1.41-.88,2.92-1.26,4.51-1.13,1.59.13,3.14.95,4.64,2.45,2.56,2.57,5.26,4.55,8.09,5.97,2.83,1.42,6.37,2.12,10.61,2.12,1.33-.09,2.79-.29,4.38-.6,1.59-.31,2.98-1.02,4.18-2.12,1.19-1.1,1.79-2.81,1.79-5.11,0-1.94-.66-3.49-1.99-4.64-1.33-1.15-3.07-2.12-5.24-2.92-2.17-.8-4.58-1.55-7.23-2.25-2.74-.8-5.55-1.68-8.42-2.65-2.87-.97-5.5-2.23-7.89-3.78-2.39-1.55-4.33-3.6-5.84-6.17-1.5-2.56-2.25-5.79-2.25-9.68,0-4.42,1.24-8.18,3.71-11.27,2.47-3.09,5.68-5.48,9.62-7.16,3.93-1.68,8.07-2.52,12.4-2.52,2.74,0,5.61.33,8.62.99,3,.66,5.88,1.72,8.62,3.18,2.74,1.46,5.04,3.38,6.9,5.77.97,1.33,1.55,2.92,1.72,4.77.18,1.86-.66,3.54-2.52,5.04-1.33,1.06-2.87,1.53-4.64,1.39-1.77-.13-3.23-.73-4.38-1.79-1.5-1.94-3.51-3.49-6.03-4.64-2.52-1.15-5.42-1.72-8.69-1.72-1.33,0-2.77.16-4.31.46-1.55.31-2.9.97-4.04,1.99-1.15,1.02-1.72,2.63-1.72,4.84,0,2.04.66,3.65,1.99,4.84,1.33,1.19,3.12,2.17,5.37,2.92,2.25.75,4.66,1.48,7.23,2.19,2.65.71,5.35,1.55,8.09,2.52,2.74.97,5.26,2.25,7.56,3.85,2.3,1.59,4.15,3.65,5.57,6.17,1.41,2.52,2.12,5.73,2.12,9.62,0,4.51-1.33,8.36-3.98,11.54-2.65,3.18-5.97,5.59-9.95,7.23-3.98,1.64-8.05,2.45-12.2,2.45-5.22,0-10.43-.91-15.65-2.72-5.22-1.81-9.55-5.02-13-9.62Z"></path><path class="cls-3" d="m322.08,108.64c-1.15,0-2.17.2-3.05.6-.89.4-1.86.6-2.92.6-.97,0-1.88-.18-2.72-.53-.84-.35-1.5-.93-1.99-1.72-.49-.8-.73-1.81-.73-3.05v-35.94h9.42c2.12,0,3.89-.68,5.3-2.06,1.41-1.37,2.12-3.07,2.12-5.11s-.71-3.89-2.12-5.31c-1.42-1.41-3.18-2.12-5.3-2.12h-9.42v-8.49c0-2.3-.73-4.22-2.19-5.77-1.46-1.55-3.34-2.32-5.64-2.32s-4.22.78-5.77,2.32-2.32,3.47-2.32,5.77v8.49h-6.1c-2.12,0-3.89.69-5.3,2.06-1.42,1.37-2.12,3.07-2.12,5.11s.71,3.89,2.12,5.3c1.41,1.42,3.18,2.12,5.3,2.12h6.1v36.6c0,4.33.66,7.74,1.99,10.21,1.33,2.48,2.98,4.31,4.97,5.5,1.99,1.19,4.11,1.95,6.37,2.26,2.25.31,4.31.46,6.17.46,3.09,0,5.99-.8,8.69-2.39,2.7-1.59,4.05-3.62,4.05-6.1,0-2.03-.51-3.63-1.53-4.77-1.02-1.15-2.15-1.72-3.38-1.72Z"></path><path class="cls-3" d="m402.72,60.77v56.36c0,8.13-1.53,14.61-4.58,19.43-3.05,4.83-7.14,8.29-12.27,10.42-5.13,2.11-10.87,3.18-17.24,3.18-2.82,0-5.82-.23-9.02-.66-3.18-.44-5.79-1.12-7.81-1.99-2.66-1.15-4.49-2.59-5.5-4.32-1.03-1.72-1.23-3.57-.6-5.5.8-2.57,2.08-4.32,3.85-5.24,1.76-.92,3.62-1.05,5.56-.34,1.42.44,3.29,1.14,5.58,2.06,2.29.92,4.95,1.39,7.96,1.39,4.07,0,7.46-.55,10.16-1.65,2.68-1.1,4.72-2.97,6.09-5.58,1.37-2.61,2.06-6.16,2.06-10.67v-1.4c-.87,1.08-1.83,2.06-2.86,2.93-2.26,1.9-4.92,3.34-8.03,4.32-3.09.96-6.62,1.46-10.6,1.46-4.69,0-8.77-1.08-12.27-3.25-3.5-2.17-6.22-5.17-8.15-9.02-1.95-3.85-2.93-8.24-2.93-13.19v-38.73c0-2.29.76-4.23,2.26-5.77,1.51-1.54,3.41-2.33,5.72-2.33s4.19.78,5.7,2.33c1.49,1.54,2.26,3.48,2.26,5.77v33.95c0,5.75,1.26,9.78,3.78,12.13,2.5,2.34,6.02,3.52,10.53,3.52,3.11,0,5.72-.59,7.83-1.79,2.11-1.19,3.76-2.95,4.9-5.29,1.15-2.34,1.72-5.2,1.72-8.56v-33.95c0-2.29.76-4.23,2.26-5.77,1.51-1.54,3.41-2.33,5.72-2.33s4.19.78,5.7,2.33c1.49,1.54,2.26,3.48,2.26,5.77Z"></path><path class="cls-3" d="m437.2,115.54c0,2.3-.78,4.22-2.32,5.77-1.55,1.55-3.47,2.32-5.77,2.32s-4.07-.77-5.57-2.32c-1.5-1.55-2.25-3.47-2.25-5.77V33.58c0-2.3.77-4.22,2.32-5.77,1.55-1.55,3.47-2.32,5.77-2.32s4.18.77,5.64,2.32c1.46,1.55,2.19,3.47,2.19,5.77v81.96Z"></path><path class="cls-3" d="m507.75,52.67c2.3,0,4.2.78,5.7,2.32,1.5,1.55,2.26,3.47,2.26,5.77v33.69c0,9.37-2.61,16.8-7.83,22.28-5.22,5.48-12.73,8.22-22.55,8.22s-17.31-2.74-22.48-8.22c-5.17-5.48-7.76-12.91-7.76-22.28v-33.69c0-2.3.75-4.22,2.25-5.77,1.5-1.55,3.4-2.32,5.7-2.32s4.2.78,5.7,2.32c1.5,1.55,2.25,3.47,2.25,5.77v33.69c0,5.39,1.19,9.4,3.58,12,2.39,2.61,5.97,3.91,10.74,3.91s8.49-1.3,10.87-3.91c2.39-2.61,3.58-6.61,3.58-12v-33.69c0-2.3.75-4.22,2.25-5.77,1.5-1.55,3.4-2.32,5.7-2.32Z"></path><path class="cls-3" d="m528.84,112.62c-.88-1.24-1.28-2.83-1.19-4.77.09-1.94,1.24-3.62,3.45-5.04,1.41-.88,2.92-1.26,4.51-1.13s3.14.95,4.64,2.45c2.56,2.57,5.26,4.55,8.09,5.97,2.83,1.42,6.37,2.12,10.61,2.12,1.33-.09,2.79-.29,4.38-.6,1.59-.31,2.98-1.02,4.18-2.12,1.19-1.1,1.79-2.81,1.79-5.11,0-1.94-.66-3.49-1.99-4.64-1.33-1.15-3.07-2.12-5.24-2.92-2.17-.8-4.58-1.55-7.23-2.25-2.74-.8-5.55-1.68-8.42-2.65-2.88-.97-5.5-2.23-7.89-3.78-2.39-1.55-4.33-3.6-5.84-6.17-1.5-2.56-2.25-5.79-2.25-9.68,0-4.42,1.24-8.18,3.71-11.27,2.47-3.09,5.68-5.48,9.61-7.16,3.93-1.68,8.07-2.52,12.4-2.52,2.74,0,5.61.33,8.62.99,3.01.66,5.88,1.72,8.62,3.18,2.74,1.46,5.04,3.38,6.9,5.77.97,1.33,1.55,2.92,1.72,4.77.18,1.86-.66,3.54-2.52,5.04-1.33,1.06-2.88,1.53-4.64,1.39-1.77-.13-3.23-.73-4.38-1.79-1.51-1.94-3.52-3.49-6.03-4.64-2.52-1.15-5.42-1.72-8.69-1.72-1.33,0-2.76.16-4.31.46-1.55.31-2.9.97-4.04,1.99-1.15,1.02-1.73,2.63-1.73,4.84,0,2.04.66,3.65,1.99,4.84,1.33,1.19,3.12,2.17,5.37,2.92,2.25.75,4.66,1.48,7.23,2.19,2.65.71,5.35,1.55,8.09,2.52,2.74.97,5.26,2.25,7.56,3.85,2.3,1.59,4.15,3.65,5.57,6.17,1.41,2.52,2.12,5.73,2.12,9.62,0,4.51-1.33,8.36-3.98,11.54-2.65,3.18-5.97,5.59-9.95,7.23-3.98,1.64-8.05,2.45-12.2,2.45-5.22,0-10.43-.91-15.65-2.72-5.22-1.81-9.55-5.02-13-9.62Z"></path><path class="cls-3" d="m631.09,108.64c-1.15,0-2.17.2-3.05.6-.88.4-1.86.6-2.92.6-.97,0-1.88-.18-2.72-.53-.84-.35-1.51-.93-1.99-1.72s-.73-1.81-.73-3.05v-35.94h9.42c2.12,0,3.89-.68,5.3-2.06,1.41-1.37,2.12-3.07,2.12-5.11s-.71-3.89-2.12-5.31c-1.42-1.41-3.18-2.12-5.3-2.12h-9.42v-8.49c0-2.3-.73-4.22-2.19-5.77-1.46-1.55-3.34-2.32-5.64-2.32s-4.22.78-5.77,2.32c-1.55,1.55-2.32,3.47-2.32,5.77v8.49h-6.1c-2.12,0-3.89.69-5.3,2.06-1.42,1.37-2.12,3.07-2.12,5.11s.71,3.89,2.12,5.3c1.41,1.42,3.18,2.12,5.3,2.12h6.1v36.6c0,4.33.66,7.74,1.99,10.21,1.33,2.48,2.98,4.31,4.97,5.5,1.99,1.19,4.11,1.95,6.37,2.26,2.26.31,4.31.46,6.17.46,3.09,0,5.99-.8,8.69-2.39,2.7-1.59,4.05-3.62,4.05-6.1,0-2.03-.51-3.63-1.53-4.77-1.02-1.15-2.15-1.72-3.38-1.72Z"></path><path class="cls-3" d="m659.08,123.63c-2.3,0-4.2-.77-5.7-2.32-1.5-1.55-2.25-3.47-2.25-5.77v-54.77c0-2.3.75-4.22,2.25-5.77,1.5-1.55,3.4-2.32,5.7-2.32s4.2.78,5.7,2.32c1.5,1.55,2.25,3.47,2.25,5.77v12.47l-.93-8.89c.97-2.12,2.23-4,3.78-5.64,1.55-1.64,3.29-3,5.24-4.11,1.94-1.1,4.02-1.92,6.23-2.45,2.21-.53,4.42-.8,6.63-.8,2.65,0,4.88.75,6.7,2.25,1.81,1.5,2.72,3.27,2.72,5.3,0,2.92-.75,5.02-2.25,6.3-1.51,1.28-3.14,1.92-4.91,1.92s-3.21-.31-4.58-.93c-1.37-.62-2.94-.93-4.71-.93-1.59,0-3.2.38-4.84,1.13-1.64.75-3.14,1.92-4.51,3.51-1.37,1.59-2.48,3.56-3.32,5.9-.84,2.34-1.26,5.11-1.26,8.29v31.43c0,2.3-.75,4.22-2.25,5.77-1.51,1.55-3.41,2.32-5.7,2.32Z"></path></svg>