<svg xmlns="http://www.w3.org/2000/svg" id="Layer_1" viewBox="0 0 669.48 131.79"><defs><style>      .cls-1 {        fill: #304369;      }      .cls-2 {        fill: #ef6322;      }    </style></defs><g><polygon class="cls-2" points="12.51 5.93 8.09 14.02 0 18.45 8.09 22.87 12.51 30.96 16.94 22.87 25.03 18.45 16.94 14.02 12.51 5.93"></polygon><path class="cls-1" d="M6.27,79.45l11.52,11.52c2.95,2.95,8.07,1.07,8.31-3.1.99-17.09,10.04-33.84,24.88-44.7,9.91-7.26,21.99-11.78,34.31-12.14,1.02-.03,2.04-.03,3.06,0,4.4.13,8.77,1.42,11.9,4.65,4.15,4.29,5.43,10.59,3.23,16.15-2.76,6.97-11,12-18.43,11.52-.71-.05-1.41-.13-2.12-.23-3.8-.57-7.48-1.83-11.39-1.94-7.58-.25-15.07,1.99-20.88,6.95-6.65,5.69-10.46,14-12.7,22.3,0,0-2.5,10.43,3.1,21.2,7.04,13.51,20.23,17.49,23.2,18.34,1.15.33,21.26,5.84,28.87-4.12,2.09-2.73,3.99-7.63,2.28-12.08-1.82-4.72-6.72-6.51-7.25-6.68-2.01-.71-4.05-.8-6.11-.19-1.63.48-3.14,1.25-4.71,1.86-7.3,2.9-15.46.8-20.64-5.08-2.54-2.89-4.06-6.77-3.64-10.59.33-3.04,1.85-5.86,3.86-8.17,9.06-10.44,25.11-7.4,36.22-2.38,7.09,3.21,13.64,8.04,17.78,14.72.66,1.06,1.25,2.16,1.77,3.28,1.42,3.05,5.46,3.74,7.84,1.35l22.45-22.45c4.34-4.34,4.34-11.37,0-15.7L82.48,3.25c-4.34-4.34-11.37-4.34-15.71,0L6.27,63.75c-4.34,4.34-4.34,11.37,0,15.7Z"></path></g><g><path class="cls-1" d="M224.21,46.03c1.91,0,3.49.63,4.75,1.88,1.25,1.25,1.88,2.87,1.88,4.86v46.68c0,1.91-.63,3.51-1.88,4.8-1.25,1.29-2.83,1.93-4.75,1.93s-3.5-.64-4.75-1.93c-1.25-1.29-1.88-2.89-1.88-4.8v-5.41l2.43.99c0,.96-.52,2.12-1.54,3.48-1.03,1.36-2.43,2.7-4.19,4.03-1.77,1.32-3.85,2.45-6.24,3.37-2.39.92-4.99,1.38-7.78,1.38-5.08,0-9.68-1.31-13.8-3.92-4.12-2.61-7.38-6.22-9.77-10.82-2.39-4.6-3.59-9.88-3.59-15.84s1.2-11.35,3.59-15.95c2.39-4.6,5.61-8.2,9.66-10.82,4.05-2.61,8.53-3.92,13.46-3.92,3.16,0,6.07.48,8.72,1.44,2.65.96,4.95,2.17,6.9,3.64,1.95,1.47,3.46,2.96,4.53,4.47,1.07,1.51,1.6,2.78,1.6,3.81l-3.97,1.43v-8.06c0-1.91.62-3.51,1.88-4.8,1.25-1.29,2.83-1.93,4.75-1.93ZM201.92,95.14c3.24,0,6.07-.81,8.5-2.43,2.43-1.62,4.32-3.83,5.68-6.62,1.36-2.8,2.04-5.92,2.04-9.38s-.68-6.69-2.04-9.49c-1.36-2.8-3.26-5-5.68-6.62-2.43-1.62-5.26-2.43-8.5-2.43s-5.96.81-8.39,2.43c-2.43,1.62-4.32,3.83-5.68,6.62-1.36,2.8-2.04,5.96-2.04,9.49s.68,6.59,2.04,9.38c1.36,2.8,3.26,5,5.68,6.62,2.43,1.62,5.22,2.43,8.39,2.43Z"></path><path class="cls-1" d="M282.82,94.04c1.77,0,3.24.57,4.42,1.71,1.18,1.14,1.77,2.59,1.77,4.36s-.59,3.13-1.77,4.3c-1.18,1.18-2.65,1.77-4.42,1.77h-35.54c-1.84,0-3.31-.66-4.41-1.99-1.1-1.32-1.62-2.65-1.54-3.97.07-1.1.22-2.08.44-2.93.22-.84.77-1.82,1.66-2.92l27.48-35.54-.22,1.55h-22.4c-1.77,0-3.24-.59-4.41-1.77-1.18-1.18-1.77-2.65-1.77-4.41s.59-3.11,1.77-4.25c1.18-1.14,2.65-1.71,4.41-1.71h33.99c1.69,0,3.13.63,4.3,1.88,1.18,1.25,1.69,2.83,1.54,4.75-.07.74-.2,1.47-.39,2.21-.18.74-.68,1.62-1.49,2.65l-27.04,34.99v-.66h23.62Z"></path><path class="cls-1" d="M329.61,46.03c5.3,0,9.32,1.14,12.08,3.42,2.76,2.28,4.65,5.32,5.68,9.11,1.03,3.79,1.55,8,1.55,12.64v28.25c0,1.91-.63,3.51-1.88,4.8-1.25,1.29-2.83,1.93-4.75,1.93s-3.5-.64-4.75-1.93c-1.25-1.29-1.88-2.89-1.88-4.8v-28.25c0-2.43-.3-4.62-.88-6.57-.59-1.95-1.66-3.51-3.2-4.69-1.54-1.18-3.75-1.77-6.62-1.77s-5.19.59-7.17,1.77c-1.99,1.18-3.48,2.74-4.47,4.69-.99,1.95-1.49,4.14-1.49,6.57v28.25c0,1.91-.63,3.51-1.88,4.8-1.25,1.29-2.83,1.93-4.75,1.93s-3.5-.64-4.75-1.93c-1.25-1.29-1.88-2.89-1.88-4.8V31.24c0-1.91.62-3.51,1.88-4.8,1.25-1.29,2.83-1.93,4.75-1.93s3.49.65,4.75,1.93c1.25,1.29,1.88,2.89,1.88,4.8v27.37l-1.65-.33c.66-1.25,1.58-2.59,2.76-4.03,1.18-1.43,2.61-2.78,4.3-4.03,1.69-1.25,3.57-2.26,5.63-3.04,2.06-.77,4.3-1.16,6.73-1.16Z"></path><path class="cls-1" d="M387.28,107.28c-6.25,0-11.68-1.31-16.28-3.92-4.6-2.61-8.13-6.16-10.6-10.65-2.46-4.49-3.7-9.56-3.7-15.23,0-6.62,1.34-12.27,4.03-16.94,2.69-4.67,6.2-8.26,10.54-10.76,4.34-2.5,8.94-3.75,13.8-3.75,3.75,0,7.3.77,10.65,2.32,3.35,1.54,6.31,3.66,8.88,6.35,2.57,2.69,4.62,5.79,6.12,9.33,1.51,3.53,2.26,7.28,2.26,11.26-.07,1.77-.77,3.2-2.1,4.3-1.32,1.1-2.87,1.66-4.64,1.66h-42.16l-3.31-11.04h40.5l-2.43,2.21v-2.98c-.15-2.13-.9-4.05-2.26-5.74-1.36-1.69-3.05-3.04-5.08-4.03-2.02-.99-4.18-1.49-6.46-1.49s-4.27.3-6.18.88c-1.91.59-3.57,1.58-4.97,2.98-1.4,1.4-2.5,3.27-3.31,5.63-.81,2.36-1.21,5.34-1.21,8.94,0,3.97.83,7.34,2.48,10.1,1.66,2.76,3.79,4.86,6.4,6.29,2.61,1.43,5.39,2.15,8.33,2.15,2.72,0,4.89-.22,6.51-.66,1.62-.44,2.92-.97,3.92-1.6.99-.62,1.89-1.16,2.7-1.6,1.32-.66,2.57-.99,3.75-.99,1.62,0,2.96.55,4.03,1.66,1.06,1.1,1.6,2.39,1.6,3.86,0,1.99-1.03,3.79-3.09,5.41-1.91,1.62-4.6,3.04-8.06,4.25-3.46,1.21-7.03,1.82-10.71,1.82Z"></path><path class="cls-1" d="M427.4,106.18c-1.91,0-3.5-.64-4.75-1.93-1.25-1.29-1.88-2.89-1.88-4.8v-45.58c0-1.91.63-3.51,1.88-4.8,1.25-1.29,2.83-1.93,4.75-1.93s3.49.65,4.75,1.93c1.25,1.29,1.88,2.89,1.88,4.8v10.37l-.77-7.39c.81-1.77,1.86-3.33,3.15-4.69,1.29-1.36,2.74-2.5,4.36-3.42,1.62-.92,3.35-1.6,5.19-2.04,1.84-.44,3.68-.66,5.52-.66,2.21,0,4.06.63,5.57,1.88,1.51,1.25,2.26,2.72,2.26,4.42,0,2.43-.63,4.18-1.88,5.24-1.25,1.07-2.61,1.6-4.08,1.6s-2.67-.26-3.81-.77c-1.14-.51-2.45-.77-3.92-.77-1.32,0-2.67.31-4.03.94-1.36.63-2.61,1.6-3.75,2.92-1.14,1.32-2.06,2.96-2.76,4.91-.7,1.95-1.05,4.25-1.05,6.9v26.16c0,1.91-.63,3.51-1.88,4.8-1.25,1.29-2.83,1.93-4.75,1.93Z"></path><path class="cls-1" d="M475.68,106.18c-1.91,0-3.5-.64-4.75-1.93-1.25-1.29-1.88-2.89-1.88-4.8v-45.58c0-1.91.63-3.51,1.88-4.8,1.25-1.29,2.83-1.93,4.75-1.93s3.49.65,4.75,1.93c1.25,1.29,1.88,2.89,1.88,4.8v10.37l-.77-7.39c.81-1.77,1.86-3.33,3.15-4.69,1.29-1.36,2.74-2.5,4.36-3.42,1.62-.92,3.35-1.6,5.19-2.04,1.84-.44,3.68-.66,5.52-.66,2.21,0,4.06.63,5.57,1.88,1.51,1.25,2.26,2.72,2.26,4.42,0,2.43-.63,4.18-1.88,5.24-1.25,1.07-2.61,1.6-4.08,1.6s-2.67-.26-3.81-.77c-1.14-.51-2.45-.77-3.92-.77-1.32,0-2.67.31-4.03.94-1.36.63-2.61,1.6-3.75,2.92-1.14,1.32-2.06,2.96-2.76,4.91-.7,1.95-1.05,4.25-1.05,6.9v26.16c0,1.91-.63,3.51-1.88,4.8-1.25,1.29-2.83,1.93-4.75,1.93Z"></path><path class="cls-1" d="M538.15,107.28c-6.25,0-11.68-1.31-16.28-3.92-4.6-2.61-8.13-6.16-10.6-10.65-2.46-4.49-3.7-9.56-3.7-15.23,0-6.62,1.34-12.27,4.03-16.94,2.69-4.67,6.2-8.26,10.54-10.76,4.34-2.5,8.94-3.75,13.8-3.75,3.75,0,7.3.77,10.65,2.32,3.35,1.54,6.31,3.66,8.88,6.35,2.57,2.69,4.62,5.79,6.12,9.33,1.51,3.53,2.26,7.28,2.26,11.26-.07,1.77-.77,3.2-2.1,4.3-1.32,1.1-2.87,1.66-4.64,1.66h-42.16l-3.31-11.04h40.5l-2.43,2.21v-2.98c-.15-2.13-.9-4.05-2.26-5.74-1.36-1.69-3.05-3.04-5.08-4.03-2.02-.99-4.18-1.49-6.46-1.49s-4.27.3-6.18.88c-1.91.59-3.57,1.58-4.97,2.98-1.4,1.4-2.5,3.27-3.31,5.63-.81,2.36-1.21,5.34-1.21,8.94,0,3.97.83,7.34,2.48,10.1,1.66,2.76,3.79,4.86,6.4,6.29,2.61,1.43,5.39,2.15,8.33,2.15,2.72,0,4.89-.22,6.51-.66,1.62-.44,2.92-.97,3.92-1.6.99-.62,1.89-1.16,2.7-1.6,1.32-.66,2.57-.99,3.75-.99,1.62,0,2.96.55,4.03,1.66,1.06,1.1,1.6,2.39,1.6,3.86,0,1.99-1.03,3.79-3.09,5.41-1.91,1.62-4.6,3.04-8.06,4.25-3.46,1.21-7.03,1.82-10.71,1.82Z"></path><path class="cls-1" d="M578.74,106.18c-1.91,0-3.5-.64-4.75-1.93-1.25-1.29-1.88-2.89-1.88-4.8v-45.58c0-1.91.63-3.51,1.88-4.8,1.25-1.29,2.83-1.93,4.75-1.93s3.49.65,4.75,1.93c1.25,1.29,1.88,2.89,1.88,4.8v10.37l-.77-7.39c.81-1.77,1.86-3.33,3.15-4.69,1.29-1.36,2.74-2.5,4.36-3.42,1.62-.92,3.35-1.6,5.19-2.04,1.84-.44,3.68-.66,5.52-.66,2.21,0,4.06.63,5.57,1.88,1.51,1.25,2.26,2.72,2.26,4.42,0,2.43-.63,4.18-1.88,5.24-1.25,1.07-2.61,1.6-4.08,1.6s-2.67-.26-3.81-.77c-1.14-.51-2.45-.77-3.92-.77-1.32,0-2.67.31-4.03.94-1.36.63-2.61,1.6-3.75,2.92-1.14,1.32-2.06,2.96-2.76,4.91-.7,1.95-1.05,4.25-1.05,6.9v26.16c0,1.91-.63,3.51-1.88,4.8-1.25,1.29-2.83,1.93-4.75,1.93Z"></path><path class="cls-1" d="M662.85,46.03c1.91,0,3.49.63,4.75,1.88,1.25,1.25,1.88,2.87,1.88,4.86v46.68c0,1.91-.63,3.51-1.88,4.8-1.25,1.29-2.83,1.93-4.75,1.93s-3.5-.64-4.75-1.93c-1.25-1.29-1.88-2.89-1.88-4.8v-5.41l2.43.99c0,.96-.52,2.12-1.55,3.48-1.03,1.36-2.43,2.7-4.19,4.03s-3.85,2.45-6.24,3.37c-2.39.92-4.98,1.38-7.78,1.38-5.08,0-9.68-1.31-13.8-3.92-4.12-2.61-7.38-6.22-9.77-10.82-2.39-4.6-3.59-9.88-3.59-15.84s1.2-11.35,3.59-15.95c2.39-4.6,5.61-8.2,9.66-10.82,4.04-2.61,8.53-3.92,13.46-3.92,3.16,0,6.07.48,8.72,1.44,2.65.96,4.95,2.17,6.9,3.64,1.95,1.47,3.46,2.96,4.53,4.47,1.06,1.51,1.6,2.78,1.6,3.81l-3.97,1.43v-8.06c0-1.91.62-3.51,1.88-4.8,1.25-1.29,2.83-1.93,4.75-1.93ZM640.56,95.14c3.24,0,6.07-.81,8.5-2.43,2.43-1.62,4.32-3.83,5.68-6.62,1.36-2.8,2.04-5.92,2.04-9.38s-.68-6.69-2.04-9.49c-1.36-2.8-3.25-5-5.68-6.62-2.43-1.62-5.26-2.43-8.5-2.43s-5.96.81-8.39,2.43c-2.43,1.62-4.32,3.83-5.68,6.62-1.36,2.8-2.04,5.96-2.04,9.49s.68,6.59,2.04,9.38c1.36,2.8,3.26,5,5.68,6.62,2.43,1.62,5.22,2.43,8.39,2.43Z"></path></g></svg>